HIERARCHY
ROOT root
{
	OFFSET 0.000000 0.000000 0.000000
	CHANNELS 6 Xposition Yposition Zposition Zrotation Yrotation Xrotation
	JOINT lhip
	{
		OFFSET 0.058581 -0.082280 -0.017664
		CHANNELS 3 Zrotation Yrotation Xrotation
		JOINT lknee
		{
			OFFSET 0.043451 -0.386469 0.008037
			CHANNELS 3 Zrotation Yrotation Xrotation
			JOINT lankle
			{
				OFFSET -0.014790 -0.426874 -0.037428
				CHANNELS 3 Zrotation Yrotation Xrotation
				JOINT ltoe
				{
					OFFSET 0.041054 -0.060286 0.122042
					CHANNELS 3 Zrotation Yrotation Xrotation
					End Site
					{
						OFFSET 0.000000 0.000000 0.000000
					}
				}
			}
		}
	}
	JOINT rhip
	{
		OFFSET -0.060310 -0.090513 -0.013543
		CHANNELS 3 Zrotation Yrotation Xrotation
		JOINT rknee
		{
			OFFSET -0.043257 -0.383688 -0.004843
			CHANNELS 3 Zrotation Yrotation Xrotation
			JOINT rankle
			{
				OFFSET 0.019056 -0.420046 -0.034562
				CHANNELS 3 Zrotation Yrotation Xrotation
				JOINT rtoe
				{
					OFFSET -0.034840 -0.062106 0.130323
					CHANNELS 3 Zrotation Yrotation Xrotation
					End Site
					{
						OFFSET 0.000000 0.000000 0.000000
					}
				}
			}
		}
	}
	JOINT lowerback
	{
		OFFSET 0.004439 0.124404 -0.038385
		CHANNELS 3 Zrotation Yrotation Xrotation
		JOINT upperback
		{
			OFFSET 0.004488 0.137956 0.026820
			CHANNELS 3 Zrotation Yrotation Xrotation
			JOINT chest
			{
				OFFSET -0.002265 0.056032 0.002855
				CHANNELS 3 Zrotation Yrotation Xrotation
				JOINT lowerneck
				{
					OFFSET -0.013390 0.211636 -0.033468
					CHANNELS 3 Zrotation Yrotation Xrotation
					JOINT upperneck
					{
						OFFSET 0.010113 0.088937 0.050410
						CHANNELS 3 Zrotation Yrotation Xrotation
						End Site
						{
							OFFSET 0.000000 0.000000 0.000000
						}
					}
				}
				JOINT lclavicle
				{
					OFFSET 0.071702 0.114000 -0.018898
					CHANNELS 3 Zrotation Yrotation Xrotation
					JOINT lshoulder
					{
						OFFSET 0.122921 0.045205 -0.019046
						CHANNELS 3 Zrotation Yrotation Xrotation
						JOINT lelbow
						{
							OFFSET 0.255332 -0.015649 -0.022946
							CHANNELS 3 Zrotation Yrotation Xrotation
							JOINT lwrist
							{
								OFFSET 0.265709 0.012698 -0.007375
								CHANNELS 3 Zrotation Yrotation Xrotation
								End Site
								{
									OFFSET 0.000000 0.000000 0.000000
								}
							}
						}
					}
				}
				JOINT rclavicle
				{
					OFFSET -0.082954 0.112472 -0.023707
					CHANNELS 3 Zrotation Yrotation Xrotation
					JOINT rshoulder
					{
						OFFSET -0.113228 0.046853 -0.008472
						CHANNELS 3 Zrotation Yrotation Xrotation
						JOINT relbow
						{
							OFFSET -0.260127 -0.014369 -0.031269
							CHANNELS 3 Zrotation Yrotation Xrotation
							JOINT rwrist
							{
								OFFSET -0.269108 0.006794 -0.006027
								CHANNELS 3 Zrotation Yrotation Xrotation
								End Site
								{
									OFFSET 0.000000 0.000000 0.000000
								}
							}
						}
					}
				}
			}
		}
	}
}
MOTION
Frames: 7
Frame Time: 0.033333
0.019951 0.257059 0.980990 -68.313420 -1.193272 107.135997 -3.379477 4.729660 -43.159133 -2.346136 18.313726 -9.348775 0.943061 23.614209 18.104070 0.000000 -0.000000 0.000000 14.157263 3.557901 -13.727161 -4.983274 1.659341 6.631380 -4.316882 -27.079996 -16.898201 0.000000 -0.000000 0.000000 2.125370 8.651247 14.662878 -0.756284 2.917235 -7.082580 1.282399 4.438599 4.438891 3.433475 -7.467745 14.071711 8.154351 -5.869799 5.539035 -10.484004 30.633150 -16.178939 -16.996862 -7.155807 1.916541 8.218291 3.583029 8.773438 -13.826309 10.398505 18.670865 8.339518 -25.804361 -13.304332 24.244279 7.012773 -7.871319 -6.486919 -21.273509 -35.070236 0.519493 -2.745682 -16.624415 
-0.001569 0.249387 0.974652 -72.270947 0.567939 105.463469 -3.205485 5.444123 -44.393301 -3.326041 20.010349 -11.489554 -0.507897 21.786388 27.590543 0.000000 -0.000000 0.000000 15.459572 4.965704 -10.216643 -5.014877 2.363159 7.649561 -4.475206 -25.833773 -17.720690 0.000000 -0.000000 0.000000 3.423484 9.289574 14.479787 -0.932803 3.516743 -6.473555 1.317473 4.955300 4.505274 3.587866 -6.044927 16.225068 7.412077 -5.964387 4.737348 -9.363909 32.030564 -16.144761 -18.361808 -5.942537 4.037213 8.184104 2.574053 15.954990 -21.270607 14.110965 22.802059 7.762052 -27.276938 -12.736583 24.347389 7.111388 -6.900163 -6.124758 -21.827096 -33.814514 10.693416 -3.338158 -16.662919 
-0.025204 0.242573 0.968746 -75.338876 1.407778 104.026457 -3.840093 5.777138 -44.731767 -4.370555 20.019645 -14.008087 -1.984063 20.232556 35.642170 0.000000 -0.000000 0.000000 16.547002 3.729033 -7.248838 -5.462637 4.532867 8.516302 -5.615378 -25.505874 -18.550706 0.000000 -0.000000 0.000000 4.042591 10.186430 13.892533 -1.105744 3.715307 -5.526695 1.492640 5.128405 4.334624 3.849196 -6.135227 17.285624 6.642872 -5.300798 6.226599 -10.488886 32.069603 -16.810150 -15.894847 -5.133343 5.259444 6.137318 1.741276 22.470612 -28.189605 20.006413 29.010344 8.747299 -28.212617 -12.783435 21.891391 6.599794 -6.838161 -5.087832 -22.747953 -31.033389 22.837343 -6.632573 -11.656905 
-0.051367 0.235700 0.963723 -77.525524 1.747647 102.786660 -3.922337 5.147378 -44.940586 -5.041187 20.412776 -14.297531 -1.344734 20.906995 39.021646 0.000000 -0.000000 0.000000 17.046944 3.031922 -3.817303 -5.644642 5.548890 8.313540 -5.795449 -26.030433 -17.601204 0.000000 -0.000000 0.000000 3.879800 10.814979 13.283287 -0.755936 3.341153 -5.746006 1.946820 4.643646 5.293448 3.744511 -6.445533 18.031341 5.921432 -3.789551 7.231167 -9.935286 31.604966 -17.047259 -14.519352 -3.585634 5.638353 5.429128 1.259300 28.668792 -37.217101 27.453993 32.800393 8.971560 -28.369387 -13.625704 19.572959 5.916469 -5.228362 -4.878921 -20.889760 -20.228665 35.908505 -14.233739 -2.504880 
-0.079181 0.229149 0.960447 -79.970358 1.992422 102.143551 -3.698678 4.462706 -45.059865 -4.978685 22.830376 -13.283856 1.475301 22.017206 40.131805 0.000000 -0.000000 0.000000 16.912905 2.948149 -2.186749 -5.368153 5.640124 10.641763 -4.386977 -25.804367 -18.020942 0.000000 -0.000000 0.000000 3.242486 11.129578 12.335005 -0.329995 2.901095 -5.754349 2.048627 3.868737 5.348104 3.390552 -5.849867 19.667060 6.166197 -2.191520 7.983664 -7.648404 31.603133 -15.698558 -13.113189 -2.457854 4.993565 4.860647 0.883063 34.235100 -45.199451 35.591378 36.555271 8.269940 -27.971009 -12.526959 17.421658 7.948435 -3.241847 -4.857886 -18.908619 -4.640067 45.613592 -24.424366 9.464589 
-0.108769 0.222416 0.960183 -82.135570 2.660806 101.322610 -3.660452 4.403610 -43.694513 -4.715695 24.204150 -12.591457 5.294747 23.544082 41.651649 0.000000 -0.000000 0.000000 16.933839 3.605985 -0.711753 -4.507503 7.096046 13.712901 -2.787500 -25.686474 -17.400328 0.000000 -0.000000 0.000000 3.190195 10.733083 11.652173 0.219307 2.352194 -5.345066 1.982862 3.849468 5.088409 3.202461 -5.341489 21.606443 6.258328 -1.149057 8.521196 -5.262312 30.373643 -14.409914 -10.766949 -1.566555 4.963356 3.879621 -0.227617 40.505711 -44.977409 39.916176 41.965630 7.227461 -26.127347 -11.493290 14.785535 10.119305 -1.173594 -6.639405 -19.589711 9.399821 45.960960 -31.676077 20.002342 
-0.139768 0.214887 0.961935 -84.009531 3.537140 101.174528 -4.178578 4.859527 -42.192783 -4.370887 23.667421 -11.181288 10.630429 25.658831 42.682847 0.000000 -0.000000 0.000000 16.410405 3.938346 -0.189335 -2.566302 8.658495 17.050172 -1.896371 -25.532658 -14.800295 0.000000 -0.000000 0.000000 3.484642 10.603749 10.661782 0.615926 2.123586 -5.144196 2.354355 5.510559 5.512352 1.990954 -7.232068 23.200306 6.913060 -0.023211 7.664741 -4.936456 25.589956 -14.118312 -6.171579 -1.148520 5.171642 2.026140 -2.140716 47.269163 -39.522928 38.724598 44.329864 5.991854 -24.400858 -11.694069 11.329062 8.218444 -1.508163 -8.956789 -17.370047 20.555703 34.587072 -34.215977 32.124482 
